<svg xmlns="http://www.w3.org/2000/svg" enable-background="new 0 0 24 24" viewBox="0 0 24 24" fill="#07c160" width="18px" height="18px"><g><path d="M0,0h24v24H0V0z" fill="none"/></g><g><path d="M12,2C6.48,2,2,6.48,2,12s4.48,10,10,10c5.52,0,10-4.48,10-10S17.52,2,12,2z M12,20c-4.41,0-8-3.59-8-8s3.59-8,8-8 c4.41,0,8,3.59,8,8S16.41,20,12,20z M15.54,8.82l-4.95,4.95l-2.12-2.12c-0.39-0.39-1.02-0.39-1.41,0l0,0 c-0.39,0.39-0.39,1.02,0,1.41l2.83,2.83c0.39,0.39,1.02,0.39,1.41,0l5.66-5.66c0.39-0.39,0.39-1.02,0-1.41l0,0 C16.56,8.43,15.93,8.43,15.54,8.82z"/></g></svg>