<svg xmlns="http://www.w3.org/2000/svg" enable-background="new 0 0 24 24" viewBox="0 0 24 24" fill="#FFC107" width="18px" height="18px"><g><rect fill="none" height="24" width="24"/></g><g><g><g><path d="M11.53,5l7.53,13.01H4L11.53,5 M2.27,17.01c-0.77,1.33,0.19,3,1.73,3h15.06c1.54,0,2.5-1.67,1.73-3 L13.26,4c-0.77-1.33-2.69-1.33-3.46,0L2.27,17.01z"/><path d="M10.53,10.01V13c0,0.55,0.45,1,1,1l0,0c0.55,0,1-0.45,1-1v-2.99c0-0.55-0.45-1-1-1l0,0 C10.98,9.01,10.53,9.46,10.53,10.01z"/><circle cx="11.53" cy="16.01" r="1"/></g></g></g></svg>