<svg xmlns="http://www.w3.org/2000/svg" enable-background="new 0 0 24 24" viewBox="0 0 24 24" fill="#444444" width="24px" height="24px"><g><path d="M0,0h24v24H0V0z" fill="none"/></g><g><path d="M12,2C6.47,2,2,6.47,2,12c0,5.53,4.47,10,10,10s10-4.47,10-10C22,6.47,17.53,2,12,2z M16.29,14.89 c0.39,0.39,0.39,1.02,0,1.41c-0.39,0.39-1.02,0.39-1.41,0L12,13.41l-2.89,2.89c-0.39,0.39-1.02,0.39-1.41,0 c-0.39-0.39-0.39-1.02,0-1.41L10.59,12L7.71,9.11c-0.39-0.39-0.39-1.02,0-1.41c0.39-0.39,1.02-0.39,1.41,0L12,10.59l2.89-2.89 c0.39-0.39,1.02-0.39,1.41,0c0.39,0.39,0.39,1.02,0,1.41L13.41,12L16.29,14.89z"/></g></svg>