<svg xmlns="http://www.w3.org/2000/svg" enable-background="new 0 0 24 24" viewBox="0 0 24 24" fill="#444444" width="24px" height="24px"><g><rect fill="none" height="24" width="24"/><rect fill="none" height="24" width="24"/></g><g><g><path d="M18,16c-0.79,0-1.5,0.31-2.03,0.81L8.91,12.7C8.96,12.47,9,12.24,9,12s-0.04-0.47-0.09-0.7l7.05-4.11 C16.49,7.69,17.21,8,18,8c1.66,0,3-1.34,3-3s-1.34-3-3-3s-3,1.34-3,3c0,0.24,0.04,0.48,0.09,0.7L8.04,9.81C7.5,9.31,6.79,9,6,9 c-1.66,0-3,1.34-3,3s1.34,3,3,3c0.79,0,1.5-0.31,2.04-0.81l7.05,4.12C15.04,18.53,15,18.76,15,19c0,1.66,1.34,3,3,3s3-1.34,3-3 S19.66,16,18,16z"/></g></g></svg>